<svg id="Layer_1" data-name="Layer 1" xmlns="http://www.w3.org/2000/svg" viewBox="0 0 1024 166.78"><defs><style>.cls-1{fill:#afe6ff;}.cls-2{fill:#00a7f2;}.cls-3{fill:#095aae;}.cls-4{fill:#00d240;}.cls-5{fill:#22ff4c;}.cls-6{fill:#0b7203;}</style></defs><rect class="cls-1" x="440.77" y="39.49" width="17.76" height="90.22"/><rect class="cls-2" x="440.77" y="85.38" width="17.76" height="44.34"/><rect class="cls-2" x="403.77" y="48.44" width="36.99" height="36.94"/><path class="cls-3" d="M380.55,48.44h23.22a0,0,0,0,1,0,0V85.38a0,0,0,0,1,0,0h-37a0,0,0,0,1,0,0V62.21A13.77,13.77,0,0,1,380.55,48.44Z"/><rect class="cls-1" x="403.77" y="85.38" width="36.99" height="36.99"/><path class="cls-2" d="M366.78,85.38h37a0,0,0,0,1,0,0v37a0,0,0,0,1,0,0H380.55a13.77,13.77,0,0,1-13.77-13.77V85.38A0,0,0,0,1,366.78,85.38Z"/><path class="cls-2" d="M335.6,68h31.18a0,0,0,0,1,0,0v35a0,0,0,0,1,0,0H335.64a5.81,5.81,0,0,1-5.81-5.81V73.79A5.77,5.77,0,0,1,335.6,68Z"/><path class="cls-3" d="M338.43,102.89h28.35V85.38l-36.95.16v8.75A8.6,8.6,0,0,0,338.43,102.89Z"/><path class="cls-2" d="M485.71,57.07H458.53V74.73h27.18a8.83,8.83,0,1,0,0-17.66Z"/><path class="cls-3" d="M485.71,94.21H458.53v17.67h27.18a8.84,8.84,0,1,0,0-17.67Z"/><path class="cls-1" d="M329.81,76.65h-58.6c-11.81.09-12.28-6.81-12.28-6.81V48.78c-.19-25.61-28.76-27-28.76-27H0V39.61H231.34c9.16-.09,9.92,6.9,9.92,6.9V69.37c0,22.39,24.37,25,24.37,25h64.18Z"/><rect class="cls-4" x="565.47" y="39.97" width="17.76" height="90.22" transform="translate(1148.71 170.16) rotate(180)"/><rect class="cls-5" x="565.47" y="85.85" width="17.76" height="44.34" transform="translate(1148.71 216.04) rotate(180)"/><rect class="cls-5" x="583.23" y="48.91" width="36.99" height="36.94" transform="translate(1203.46 134.76) rotate(180)"/><path class="cls-4" d="M620.23,48.91h37a0,0,0,0,1,0,0V85.85a0,0,0,0,1,0,0H634a13.77,13.77,0,0,1-13.77-13.77V48.91A0,0,0,0,1,620.23,48.91Z" transform="translate(1277.45 134.76) rotate(180)"/><rect class="cls-4" x="583.23" y="85.85" width="36.99" height="36.99" transform="translate(1203.46 208.7) rotate(180)"/><path class="cls-6" d="M634,85.85h23.22a0,0,0,0,1,0,0v37a0,0,0,0,1,0,0h-37a0,0,0,0,1,0,0V99.62A13.77,13.77,0,0,1,634,85.85Z" transform="translate(1277.45 208.7) rotate(180)"/><path class="cls-6" d="M663,68.5h31.14a0,0,0,0,1,0,0v35a0,0,0,0,1,0,0H663a5.77,5.77,0,0,1-5.77-5.77V74.31A5.81,5.81,0,0,1,663,68.5Z" transform="translate(1351.39 172.02) rotate(180)"/><path class="cls-4" d="M685.57,103.36H657.22V85.85l36.95.16v8.75A8.6,8.6,0,0,1,685.57,103.36Z"/><path class="cls-5" d="M694.19,77.12h58.6c11.81.09,12.28-6.8,12.28-6.8V49.25c.19-25.6,28.76-27,28.76-27H1024v17.8H792.66C783.5,40,782.74,47,782.74,47V69.84c0,22.4-24.37,25-24.37,25H694.19Z"/><path class="cls-2" d="M458.53,4h18a0,0,0,0,1,0,0V9.53A11.57,11.57,0,0,1,465,21.1h-6.43a0,0,0,0,1,0,0V4A0,0,0,0,1,458.53,4Z"/><path class="cls-1" d="M459.06,149.65h17.13a0,0,0,0,1,0,0v5.56a11.57,11.57,0,0,1-11.57,11.57h-5.56a0,0,0,0,1,0,0V149.65A0,0,0,0,1,459.06,149.65Z"/><path class="cls-4" d="M531.69,131.45h17.13a0,0,0,0,1,0,0V137a11.57,11.57,0,0,1-11.57,11.57h-5.56a0,0,0,0,1,0,0V131.45A0,0,0,0,1,531.69,131.45Z" transform="translate(1080.51 280.03) rotate(-180)"/><path class="cls-5" d="M531.28,21.82h5.56a11.57,11.57,0,0,1,11.57,11.57V39a0,0,0,0,1,0,0H531.28a0,0,0,0,1,0,0V21.82A0,0,0,0,1,531.28,21.82Z"/><path class="cls-2" d="M269.91,76.62c-10.5-.42-11-6.76-11-6.76V48.79a27.88,27.88,0,0,0-1.51-9.11H233c7.66.69,8.32,6.84,8.32,6.84V69.38a26.13,26.13,0,0,0,1,7.26h27.65Z"/><path class="cls-4" d="M754.09,77.09c10.5-.42,11-6.76,11-6.76V49.26a27.82,27.82,0,0,1,1.51-9.1H791c-7.66.68-8.32,6.83-8.32,6.83V69.86a26.11,26.11,0,0,1-1,7.25H754.09Z"/></svg>